# xmcd CD database file
#
# Track frame offsets:
#	150
#	13016
#	33133
#	47368
#	59809
#	77291
#	93664
#	113827
#	127934
#	145429
#	164490
#	182021
#	197782
#	216735
#
# Disc length: 3429 seconds
#
# Revision: 3
# Processed by: cddbd v1.5.2PL0 Copyright (c) Steve Scherf et al.
# Submitted via: CDex 1.70beta2
#
DISCID=c50d630e
DTITLE=Johnny Bush - Lost Highway Saloon
DYEAR=2000
DGENRE=Country
TTITLE0=The Same Ole Me
TTITLE1=When It's Your Turn To Fall
TTITLE2=Wish I'd Seen Your Going Coming
TTITLE3=Maybe, Maybe Not
TTITLE4=The Wall
TTITLE5=You've Got 'Til Sundown
TTITLE6=Lost Highway Saloon
TTITLE7=Hands Can Say A Lot Beneath The Table
TTITLE8=They're Hanging Me Tonight
TTITLE9=I'll Never Be Free
TTITLE10=Home To Texas
TTITLE11=Pride Goes Before A Fall
TTITLE12=So This Is The Fall (That Pride Goes Before)
TTITLE13=Wine Into Water
EXTD=YEAR: 2000
EXTT0=
EXTT1=
EXTT2=
EXTT3=
EXTT4=
EXTT5=
EXTT6=
EXTT7=
EXTT8=
EXTT9=
EXTT10=
EXTT11=
EXTT12=
EXTT13=
PLAYORDER=
